<svg width="27" height="27" viewBox="0 0 27 27" fill="none" xmlns="http://www.w3.org/2000/svg">
<path fill-rule="evenodd" clip-rule="evenodd" d="M21.5378 5.57955C21.3158 7.10568 20.9797 8.82073 20.8493 9.46911C24.3318 11.0357 26.6229 13.7611 26.5655 17.1626C26.513 23.0408 20.7309 26.3202 13.5336 26.3202C6.33617 26.3202 0.525132 22.8346 0.501572 17.1626C0.373398 13.7561 2.72533 11.0053 6.28453 9.43719C6.16502 8.89691 5.79527 7.17816 5.56261 5.57955C5.32262 3.93084 5.37853 2.75152 6.05553 1.90167C6.72472 1.06146 7.43517 0.535578 8.50768 0.476679C9.37511 0.429011 9.91991 0.639185 10.6321 1.13668C12.2413 2.26083 12.2045 4.10073 12.1682 5.90881C12.1628 6.17633 12.1575 6.44314 12.1575 6.70684C12.1575 7.42919 12.1675 7.82937 12.1777 8.04977C12.6241 8.02004 13.0765 8.00491 13.5336 8.00491C14.0024 8.00491 14.4658 8.02069 14.9225 8.05163C14.9282 7.93017 14.9338 7.75375 14.9377 7.49819C14.9409 7.29083 14.943 7.03134 14.943 6.70684C14.943 6.44384 14.9376 6.17773 14.9322 5.91091V5.90881C14.896 4.10073 14.8591 2.26083 16.4684 1.13668C17.1805 0.639185 17.7253 0.429011 18.5928 0.476679C19.6653 0.535578 20.3757 1.06146 21.0449 1.90167C21.7219 2.75152 21.7778 3.93084 21.5378 5.57955ZM2.56773 17.7129C2.56773 17.7129 3.97423 23.0034 13.6045 22.944C23.2347 22.8845 24.7997 17.3959 24.7997 17.3959C24.7997 17.3959 25.7115 24.5688 13.6045 24.5291C1.4973 24.4895 2.56773 17.7129 2.56773 17.7129ZM10.2561 15.7612C10.2561 16.8172 9.71947 17.6733 9.05736 17.6733C8.39525 17.6733 7.85851 16.8172 7.85851 15.7612C7.85851 14.7051 8.39525 13.8491 9.05736 13.8491C9.71947 13.8491 10.2561 14.7051 10.2561 15.7612ZM17.9938 17.6733C18.6559 17.6733 19.1925 16.8172 19.1925 15.7612C19.1925 14.7051 18.6559 13.8491 17.9938 13.8491C17.3316 13.8491 16.7949 14.7051 16.7949 15.7612C16.7949 16.8172 17.3316 17.6733 17.9938 17.6733Z" fill="white"/>
</svg>
