<svg width="26" height="33" viewBox="0 0 26 33" fill="none" xmlns="http://www.w3.org/2000/svg">
<path d="M22.1448 32.2877H4.02873C2.27268 32.2877 0.84375 30.8588 0.84375 29.1027V3.84593C0.84375 2.08988 2.27268 0.66095 4.02873 0.66095H14.932C15.2685 0.66095 15.5909 0.794766 15.8288 1.03266L24.958 10.1689C25.1959 10.4068 25.329 10.7292 25.329 11.0657V29.1027C25.329 30.8596 23.9008 32.2877 22.1448 32.2877ZM4.02873 3.19798C3.6711 3.19798 3.38077 3.48908 3.38077 3.84593V29.1027C3.38077 29.4604 3.67188 29.7507 4.02873 29.7507H22.1448C22.5024 29.7507 22.7927 29.4596 22.7927 29.1027V11.5908L14.4061 3.19798H4.02873Z" fill="white"/>
<path d="M24.061 12.335H14.9248C14.2244 12.335 13.6562 11.7669 13.6562 11.0665V1.93025C13.6562 1.4169 13.9654 0.955199 14.4388 0.758779C14.913 0.563142 15.4585 0.671134 15.8208 1.03346L24.9571 10.1697C25.3202 10.5321 25.4281 11.0783 25.2317 11.5517C25.0361 12.0259 24.5736 12.335 24.061 12.335ZM16.1925 9.79802H20.9989L16.1925 4.99159V9.79802Z" fill="white"/>
</svg>
