<svg width="30" height="23" viewBox="0 0 30 23" fill="none" xmlns="http://www.w3.org/2000/svg">
<path d="M29.0912 3.05044C29.0912 4.68455 27.7665 6.00926 26.1324 6.00926C26.0163 6.00926 25.9017 6.00257 25.789 5.98955L20.7274 15.0044C21.1904 15.5266 21.4716 16.2138 21.4716 16.9666C21.4716 18.6008 20.1469 19.9255 18.5128 19.9255C16.8787 19.9255 15.554 18.6008 15.554 16.9666C15.554 16.4806 15.6712 16.0219 15.8789 15.6173L12.0813 11.6791C11.7178 11.8386 11.3161 11.9271 10.8936 11.9271C10.6407 11.9271 10.3952 11.8954 10.1608 11.8357L5.71162 18.2478C6.04035 18.7245 6.23284 19.3025 6.23284 19.9254C6.23284 21.5595 4.90812 22.8842 3.27401 22.8842C1.6399 22.8842 0.315186 21.5595 0.315186 19.9254C0.315186 18.2913 1.6399 16.9666 3.27401 16.9666C3.55622 16.9666 3.82919 17.0061 4.08772 17.0798L8.50464 10.7143C8.14635 10.2249 7.93481 9.62129 7.93481 8.96829C7.93481 7.33417 9.25953 6.00946 10.8936 6.00946C12.5278 6.00946 13.8525 7.33417 13.8525 8.96829C13.8525 9.44912 13.7378 9.90316 13.5342 10.3045L17.3387 14.2499C17.6986 14.0941 18.0956 14.0078 18.5128 14.0078C18.6694 14.0078 18.8232 14.02 18.9733 14.0434L23.9961 5.09762C23.4866 4.56611 23.1736 3.84483 23.1736 3.05044C23.1736 1.41632 24.4983 0.0916138 26.1324 0.0916138C27.7665 0.0916138 29.0912 1.41632 29.0912 3.05044Z" fill="white"/>
</svg>
