<svg width="28" height="23" viewBox="0 0 28 23" fill="none" xmlns="http://www.w3.org/2000/svg">
<path d="M1.78046 9.49208L26.0916 0.118537C27.2196 -0.288981 28.2048 0.393401 27.8401 2.0985C27.84 2.09893 27.8405 2.09925 27.8409 2.09894V2.09894C27.8412 2.09863 27.8417 2.09891 27.8416 2.09934L23.7025 21.5993C23.3957 22.9819 22.5741 23.3181 21.4248 22.6667L18.5197 20.5257C16.5567 19.079 13.8368 19.2583 12.0806 20.95V20.95V20.95C11.5209 21.5097 10.8562 20.899 10.9113 20.1094L11.1347 16.9078C11.2131 15.7832 11.7243 14.7327 12.5609 13.9769L22.9398 4.60044C23.4483 4.15288 22.8263 3.90074 22.156 4.3462L10.4506 11.7159C8.71698 12.8074 6.59217 13.0847 4.63647 12.4746L1.4947 11.4945C0.143613 11.0659 0.114196 10.1435 1.78046 9.49208Z" fill="white"/>
</svg>
